<?xml version="1.0" standalone="no"?>
<!DOCTYPE svg PUBLIC "-//W3C//DTD SVG 20010904//EN"
 "http://www.w3.org/TR/2001/REC-SVG-20010904/DTD/svg10.dtd">
<svg version="1.0" xmlns="http://www.w3.org/2000/svg"
 width="900.000000pt" height="312.000000pt" viewBox="0 0 900.000000 312.000000"
 preserveAspectRatio="xMidYMid meet">
<metadata>
Created by potrace 1.10, written by Peter Selinger 2001-2011
</metadata>
<g transform="translate(0.000000,312.000000) scale(0.100000,-0.100000)"
fill="#000000" stroke="none">
<path d="M8354 3052 c-34 -27 -46 -77 -29 -118 8 -19 19 -34 24 -34 20 0 11
-40 -16 -83 -16 -23 -30 -58 -33 -77 -4 -26 -10 -35 -24 -35 -20 0 -45 -30
-34 -41 4 -3 28 -10 55 -15 26 -5 51 -13 56 -18 17 -17 12 -203 -6 -245 -11
-25 -19 -76 -22 -135 -2 -53 -11 -130 -19 -171 -16 -82 -38 -110 -87 -110 -37
0 -44 -15 -19 -40 14 -14 33 -20 68 -20 57 0 72 12 72 60 0 19 10 60 21 90 12
30 25 80 29 110 7 56 34 130 48 130 13 0 27 -14 52 -52 27 -40 67 -68 98 -68
25 0 151 -56 174 -77 12 -11 18 -31 18 -59 0 -24 4 -45 9 -49 16 -9 48 34 55
73 10 63 8 71 -21 78 -16 4 -60 26 -99 50 -40 24 -81 44 -92 44 -36 0 -81 126
-87 247 -3 38 -11 62 -29 86 -14 19 -26 38 -26 44 0 5 25 31 55 57 30 26 55
53 55 60 0 7 -22 36 -50 64 -54 56 -61 72 -30 72 27 0 34 20 26 75 -8 49 -27
75 -56 75 -11 0 -30 11 -44 25 -29 29 -62 32 -92 7z m126 -129 c0 -35 -10 -42
-29 -19 -8 10 -8 21 0 45 14 39 29 25 29 -26z m50 -188 c0 -8 -7 -15 -15 -15
-16 0 -20 12 -8 23 11 12 23 8 23 -8z"/>
<path d="M348 3041 c-37 -29 -46 -95 -18 -133 28 -37 25 -64 -10 -108 -16 -21
-30 -46 -30 -56 0 -9 -7 -25 -16 -35 -24 -27 -11 -47 33 -51 34 -3 38 -6 40
-33 2 -16 8 -54 14 -82 7 -36 7 -63 0 -85 -33 -111 -41 -153 -41 -219 0 -62
-30 -245 -42 -253 -38 -25 -60 -36 -71 -36 -8 0 -20 -7 -27 -15 -10 -12 -8
-16 15 -25 29 -11 95 -13 119 -4 10 4 16 18 16 39 0 17 9 58 21 91 12 32 24
84 29 114 9 65 30 120 45 120 6 0 21 -20 33 -44 13 -24 29 -47 37 -50 18 -6
63 1 123 20 23 8 62 14 86 14 45 0 66 -16 102 -76 17 -28 29 -8 28 46 -3 87
-3 87 -158 84 -126 -3 -135 -1 -141 17 -4 10 -5 73 -3 138 3 112 2 121 -19
143 -30 32 -29 43 10 69 53 36 97 82 97 100 0 19 -107 122 -147 141 -29 14
-43 52 -25 70 7 7 14 2 22 -13 7 -12 21 -31 30 -42 25 -26 34 -7 25 51 -7 52
-28 82 -56 82 -10 0 -22 6 -26 14 -15 25 -67 29 -95 7z m192 -307 c0 -8 -10
-24 -22 -36 -19 -19 -23 -20 -26 -7 -5 28 16 69 33 63 8 -3 15 -12 15 -20z"/>
<path d="M7345 3034 c-14 -15 -27 -42 -31 -61 -5 -28 -2 -39 20 -62 14 -15 26
-34 26 -42 0 -8 -16 -39 -35 -69 -27 -42 -34 -62 -29 -82 4 -21 2 -28 -9 -28
-8 0 -20 -7 -27 -15 -18 -22 5 -45 45 -45 42 0 52 -13 60 -82 6 -44 3 -63 -10
-90 -63 -119 -75 -167 -69 -272 3 -50 2 -111 -3 -135 -8 -41 -13 -47 -57 -69
-46 -23 -48 -26 -31 -38 20 -15 58 -16 110 -5 30 6 30 6 37 96 3 50 11 120 16
156 15 110 73 165 106 102 8 -16 35 -48 61 -73 188 -182 201 -202 179 -265
-14 -43 -7 -56 27 -48 17 5 79 86 79 103 0 4 -17 19 -39 34 -21 15 -50 49 -65
76 -15 27 -40 62 -57 77 -54 51 -87 140 -98 263 -5 66 -9 76 -30 86 -16 8 -25
23 -27 43 -3 26 2 35 41 63 24 18 47 39 50 47 5 14 -33 81 -47 81 -4 0 -17 19
-29 41 -11 23 -32 51 -47 64 l-26 22 18 38 c20 41 36 34 36 -16 0 -26 27 -59
48 -59 8 0 12 17 12 45 0 52 -32 105 -63 105 -10 0 -30 9 -44 20 -35 27 -69
25 -98 -6z"/>
<path d="M6342 3023 c-33 -41 -33 -104 0 -140 24 -25 19 -48 -23 -106 -33 -45
-36 -69 -13 -88 14 -11 13 -14 -11 -26 -36 -20 -29 -47 13 -51 24 -3 35 -10
43 -28 18 -50 10 -91 -42 -190 -56 -107 -55 -97 -28 -256 12 -74 12 -79 -7
-105 -11 -15 -35 -31 -52 -35 -37 -10 -39 -18 -13 -42 23 -21 89 -14 121 12
18 15 19 22 10 52 -8 25 -7 53 1 98 6 35 9 81 6 103 -5 35 -1 45 25 75 44 50
56 45 97 -42 5 -12 42 -54 82 -95 84 -86 129 -145 129 -170 0 -10 -9 -34 -21
-53 -20 -34 -19 -56 3 -56 16 0 76 48 94 75 15 24 15 26 -25 71 -23 26 -51 68
-63 93 -13 25 -34 58 -47 72 -41 45 -71 154 -75 265 -1 37 -8 61 -28 90 -16
22 -28 44 -28 49 0 5 16 26 36 46 l36 37 -25 38 c-14 22 -28 58 -32 81 -5 31
-15 50 -37 67 -25 19 -29 29 -24 49 6 24 38 46 43 30 12 -36 41 -78 53 -78 22
0 24 32 5 81 -13 33 -23 45 -50 54 -18 6 -43 20 -56 30 -32 28 -71 25 -97 -7z"/>
<path d="M1348 3023 c-45 -52 -49 -102 -13 -139 14 -14 25 -29 25 -33 0 -12
-21 -51 -47 -88 -13 -17 -23 -44 -23 -60 0 -15 -4 -35 -10 -43 -12 -20 6 -40
36 -40 29 0 38 -20 48 -100 5 -39 2 -71 -10 -110 -13 -43 -16 -94 -15 -233 1
-204 -6 -230 -61 -242 -46 -10 -49 -14 -37 -36 9 -17 19 -20 77 -17 l67 3 0
55 c0 30 7 90 14 132 11 60 18 75 27 67 13 -11 42 0 74 26 35 29 131 75 156
75 18 0 40 -12 61 -32 28 -27 35 -30 43 -18 18 30 -28 130 -60 130 -9 0 -37
-11 -61 -24 -24 -14 -62 -26 -84 -28 l-40 -3 4 75 c2 42 9 84 17 95 21 29 17
47 -21 100 -32 46 -33 50 -18 67 8 10 25 20 37 24 28 8 76 54 76 72 0 23 -66
99 -126 143 l-53 41 16 34 c19 40 36 39 43 -1 5 -26 33 -55 44 -44 3 2 -1 29
-7 59 -9 41 -17 56 -32 59 -11 2 -33 14 -51 27 -37 28 -75 31 -96 7z m177
-313 c8 -13 -14 -42 -26 -34 -5 3 -9 14 -9 25 0 20 24 26 35 9z"/>
<path d="M5354 3022 c-20 -16 -44 -69 -44 -98 0 -7 11 -26 25 -42 31 -38 31
-45 -3 -96 -40 -59 -44 -73 -27 -111 13 -32 13 -36 -6 -46 -19 -10 -19 -11 6
-42 14 -18 32 -39 40 -48 24 -25 18 -47 -28 -107 -68 -90 -90 -130 -83 -156 3
-12 32 -45 63 -73 32 -28 67 -66 77 -85 19 -35 19 -36 -2 -70 -31 -49 -29 -62
8 -54 17 3 46 22 65 43 l33 37 -39 44 c-21 25 -49 66 -61 91 -12 25 -28 53
-36 62 -11 15 -9 19 21 38 19 11 37 21 39 21 3 0 22 -34 43 -75 20 -42 54 -93
75 -115 53 -55 110 -144 110 -172 0 -13 -9 -36 -20 -53 -40 -60 -13 -73 58
-28 54 36 60 54 27 97 -31 41 -65 105 -65 123 0 7 -13 27 -28 45 -16 18 -34
53 -41 78 -11 36 -21 164 -21 263 0 9 -13 31 -30 48 -24 25 -27 35 -19 50 5
11 14 19 19 19 23 0 30 39 15 76 -8 20 -15 56 -15 80 0 36 -6 49 -35 79 -29
29 -34 40 -29 62 11 46 23 51 50 18 60 -74 70 -78 60 -21 -9 46 -42 86 -71 86
-13 0 -28 6 -32 14 -9 16 -46 36 -65 36 -7 0 -23 -8 -34 -18z"/>
<path d="M2341 2994 c-11 -14 -23 -41 -27 -60 -5 -27 -1 -39 20 -65 33 -39 33
-47 -3 -96 -39 -55 -46 -79 -27 -108 14 -21 14 -24 -6 -37 -30 -20 -17 -48 21
-48 25 0 32 -5 37 -26 7 -29 0 -176 -16 -299 -9 -72 -8 -83 9 -105 20 -28 41
-111 41 -164 0 -24 -7 -38 -30 -54 -16 -12 -36 -22 -44 -22 -27 0 -27 -19 -1
-36 23 -15 33 -15 79 -5 l54 12 -4 144 -4 145 32 16 c18 9 56 22 85 29 46 11
56 10 82 -6 16 -9 32 -22 35 -28 10 -15 33 -14 39 2 6 16 -21 77 -47 106 -18
20 -38 19 -66 -4 -8 -7 -39 -15 -67 -19 -49 -6 -53 -5 -53 14 0 11 14 46 30
77 39 72 41 130 5 163 -32 30 -33 66 -3 76 29 9 76 43 82 60 6 15 -106 172
-129 180 -20 8 -27 37 -16 68 14 35 23 33 50 -14 26 -46 41 -44 41 4 0 38 -33
86 -59 86 -10 0 -26 9 -36 20 -27 30 -78 27 -104 -6z"/>
<path d="M3351 3001 c-26 -22 -44 -77 -35 -106 4 -11 16 -32 27 -47 l20 -27
-36 -60 c-44 -70 -46 -93 -12 -119 30 -24 30 -27 5 -52 -23 -23 -19 -37 15
-50 37 -14 42 -88 12 -175 -40 -114 -49 -149 -45 -180 3 -28 6 -30 52 -35 l49
-5 14 -50 c34 -120 35 -137 12 -161 -12 -13 -31 -24 -42 -26 -30 -4 -31 -22
-2 -38 20 -11 35 -11 81 -1 56 13 56 13 50 44 -4 18 -13 70 -20 117 -8 47 -18
99 -24 116 -15 47 0 64 57 64 42 0 50 -4 75 -35 59 -73 65 16 9 114 -2 2 -28
-4 -59 -14 -32 -10 -59 -14 -64 -9 -10 10 9 73 41 136 18 35 19 44 8 72 -7 17
-21 41 -32 53 -25 28 -19 55 18 72 17 7 38 20 47 28 16 14 16 17 0 47 -34 60
-90 141 -111 160 -25 23 -27 44 -5 74 19 28 32 28 44 0 30 -72 68 -74 43 -3
-12 37 -22 48 -56 63 -23 10 -48 26 -56 35 -18 22 -53 21 -80 -2z"/>
<path d="M4348 2993 c-45 -52 -49 -102 -13 -139 14 -14 25 -30 25 -37 0 -7
-16 -37 -35 -67 -19 -30 -35 -61 -35 -69 0 -8 12 -27 26 -42 22 -23 24 -30 15
-48 -14 -26 -5 -64 20 -87 10 -9 19 -23 19 -31 0 -8 -26 -49 -57 -91 -72 -96
-95 -136 -87 -155 3 -9 37 -21 84 -31 70 -16 79 -20 90 -47 7 -16 16 -29 19
-29 4 0 24 -34 45 -75 44 -87 43 -121 -2 -131 -41 -10 -45 -14 -26 -35 19 -21
51 -24 107 -8 46 13 48 31 8 114 -26 53 -27 63 -16 85 12 23 19 69 16 112 -1
11 -14 21 -33 26 -29 8 -33 12 -30 37 2 16 10 41 18 56 8 16 14 38 14 51 1 13
7 34 15 48 22 38 18 62 -15 100 -16 19 -29 42 -30 51 0 17 25 42 53 52 9 4 17
16 17 29 0 34 -75 183 -101 201 -24 17 -22 46 6 82 15 20 16 19 43 -12 33 -38
42 -41 42 -13 0 31 -30 70 -52 70 -11 0 -33 11 -50 25 -34 29 -78 32 -100 8z"/>
<path d="M6374 1810 c-35 -14 -54 -50 -54 -101 0 -33 5 -51 20 -64 27 -25 26
-35 -15 -95 -19 -29 -35 -58 -35 -66 0 -7 -7 -17 -17 -22 -22 -13 -10 -42 17
-42 46 0 57 -16 69 -97 l11 -78 -55 -108 c-60 -117 -63 -134 -40 -242 19 -90
12 -129 -29 -159 -17 -13 -40 -26 -51 -30 -20 -7 -20 -7 0 -22 15 -12 34 -14
80 -9 33 3 64 10 69 15 4 4 3 25 -4 45 -10 30 -10 53 0 110 7 41 9 90 6 109
-6 33 -3 40 32 76 21 22 43 40 48 40 5 -1 29 -28 54 -62 25 -33 59 -69 75 -79
17 -10 58 -51 92 -91 66 -76 76 -107 48 -144 -20 -26 -19 -44 3 -44 24 0 64
35 88 78 18 32 18 32 -6 50 -33 24 -32 22 -68 68 -17 23 -32 46 -32 51 0 5
-16 25 -36 44 -57 54 -111 207 -99 279 5 28 1 44 -19 73 -15 21 -26 40 -26 43
0 3 34 38 75 79 41 41 75 81 75 89 0 13 -51 58 -95 82 -10 6 -23 26 -28 45 -5
19 -13 37 -18 40 -6 4 -6 16 2 32 17 38 5 60 -31 55 -25 -4 -31 -1 -36 19 -4
13 -14 28 -24 33 -21 11 -18 11 -46 0z m104 -148 c2 -14 -2 -22 -12 -22 -19 0
-28 14 -20 35 9 21 28 14 32 -13z m80 -165 c4 -20 -42 -87 -60 -87 -10 0 -3
84 9 103 9 15 48 2 51 -16z"/>
<path d="M7364 1798 c-23 -11 -54 -67 -54 -99 0 -11 11 -31 25 -45 32 -32 31
-46 -5 -98 -37 -55 -64 -121 -56 -141 3 -9 18 -15 35 -15 38 0 47 -16 56 -102
6 -59 4 -72 -18 -120 -55 -115 -59 -137 -63 -287 -2 -92 -8 -148 -15 -158 -7
-8 -28 -21 -46 -28 -24 -10 -33 -20 -31 -32 3 -15 14 -18 66 -18 76 0 81 6 81
93 0 35 4 85 10 111 6 25 13 66 16 91 6 48 46 104 69 98 7 -2 33 -28 57 -58
35 -43 53 -56 84 -62 22 -5 56 -16 75 -24 19 -9 50 -24 69 -32 37 -18 53 -50
49 -96 -2 -25 1 -31 17 -31 24 0 56 60 59 107 1 28 -3 33 -29 38 -33 7 -58 21
-119 63 -21 15 -47 27 -56 27 -46 0 -90 106 -90 218 0 54 -4 71 -25 98 -33 43
-32 58 8 83 17 11 50 38 71 60 38 38 38 41 23 64 -8 13 -38 39 -66 56 -28 18
-51 37 -51 42 0 5 -6 9 -13 9 -8 0 -24 9 -37 20 -22 19 -22 20 -4 57 l18 38 7
-39 c6 -35 40 -78 46 -59 2 4 0 35 -5 68 -6 56 -9 60 -34 63 -16 2 -28 7 -28
12 0 10 -53 41 -67 39 -4 0 -17 -5 -29 -11z m186 -315 c0 -19 -38 -73 -52 -73
-15 0 -3 81 13 91 17 10 39 0 39 -18z"/>
<path d="M8370 1796 c-35 -15 -40 -25 -37 -76 4 -51 12 -70 32 -70 19 0 27
-27 9 -34 -8 -3 -14 -16 -14 -30 0 -15 -12 -34 -30 -49 -16 -14 -30 -34 -30
-44 0 -11 -7 -28 -15 -39 -27 -36 -19 -54 24 -54 22 0 42 -4 45 -9 12 -18 11
-208 -1 -222 -30 -37 -51 -136 -55 -264 -5 -153 -17 -184 -78 -211 -46 -20
-51 -39 -15 -48 35 -9 125 4 126 18 0 6 0 30 -1 52 -1 23 6 59 15 80 9 22 17
62 17 89 2 53 27 124 54 146 14 11 19 10 35 -11 10 -14 22 -34 25 -45 16 -50
30 -55 151 -55 108 0 115 -1 139 -25 14 -14 30 -39 36 -55 22 -64 52 -10 40
73 l-7 52 -50 1 c-28 1 -72 7 -100 14 -27 6 -63 14 -79 17 -42 8 -59 57 -62
177 -2 82 -6 103 -23 127 -28 38 -26 56 7 73 15 8 45 33 67 55 32 34 38 45 29
59 -17 26 -136 122 -166 134 -28 10 -37 31 -18 43 6 3 10 18 10 31 0 36 24 25
28 -12 5 -44 62 -89 62 -49 0 32 -32 91 -67 123 -46 43 -71 52 -103 38z m173
-334 c-6 -17 -38 -52 -48 -52 -11 0 -4 47 11 68 12 18 19 20 29 12 8 -6 11
-19 8 -28z"/>
<path d="M352 1764 c-19 -16 -32 -36 -32 -50 0 -33 20 -73 40 -79 17 -5 17 -8
0 -41 -10 -19 -30 -50 -44 -69 -30 -39 -34 -80 -8 -94 16 -9 16 -11 -2 -41
-19 -33 -15 -46 18 -52 29 -5 49 -89 37 -148 -22 -101 -33 -219 -26 -256 11
-55 6 -173 -10 -211 -9 -22 -23 -34 -42 -38 -62 -14 -69 -24 -30 -43 26 -13
38 -15 90 -13 l37 1 0 65 c0 36 7 82 15 102 8 19 15 64 15 98 0 35 3 71 6 80
6 14 9 13 30 -6 13 -12 24 -28 24 -34 0 -7 9 -20 20 -30 16 -15 24 -16 52 -5
48 17 180 39 198 32 23 -8 60 -44 60 -58 0 -17 15 -25 34 -18 20 8 20 46 2 99
-13 37 -17 40 -48 37 -67 -6 -230 -7 -239 -1 -6 3 -10 65 -11 138 -1 124 -3
135 -25 161 -32 39 -29 56 17 85 23 14 43 32 46 40 7 16 -9 47 -47 96 -33 42
-36 66 -12 84 12 9 16 25 15 60 -3 56 -7 65 -33 65 -11 0 -33 16 -50 35 -37
42 -55 44 -97 9z m112 -90 c9 -23 7 -64 -3 -64 -5 0 -16 12 -26 26 -13 20 -14
28 -4 40 15 18 25 18 33 -2z"/>
<path d="M5347 1772 c-17 -19 -37 -65 -37 -87 0 -7 11 -27 25 -43 32 -38 31
-50 -5 -100 -16 -22 -32 -52 -36 -66 -3 -15 -14 -26 -27 -28 -43 -6 -25 -38
33 -61 l55 -22 3 -72 3 -72 -54 -73 c-30 -40 -62 -87 -70 -104 -15 -28 -14
-33 3 -62 11 -18 24 -32 28 -32 5 0 30 -20 55 -44 89 -83 111 -72 57 28 -45
83 -47 94 -22 103 9 3 25 13 35 21 15 14 19 13 37 -3 11 -10 20 -22 20 -27 0
-12 68 -101 85 -111 24 -13 135 -158 135 -175 0 -9 -7 -30 -15 -46 -16 -31
-20 -66 -6 -66 15 0 74 45 95 73 l20 27 -36 38 c-20 20 -48 60 -62 88 -14 29
-41 65 -59 81 -28 25 -34 40 -50 119 -9 50 -17 118 -17 151 0 42 -5 64 -15 73
-25 21 -18 40 36 95 29 30 62 72 75 93 l24 40 -32 28 c-18 15 -47 33 -64 40
-36 15 -54 54 -54 116 0 31 -5 40 -22 47 -13 5 -32 18 -42 30 -24 26 -77 28
-99 3z m128 -149 c-2 -8 -9 -11 -15 -8 -11 7 -14 48 -3 59 10 9 25 -34 18 -51z
m91 -118 c10 -25 -4 -62 -38 -95 -43 -43 -55 -22 -31 54 15 46 22 56 41 56 12
0 25 -7 28 -15z"/>
<path d="M4364 1760 c-24 -9 -54 -66 -54 -102 0 -14 11 -35 25 -48 14 -13 25
-30 25 -37 0 -16 -60 -109 -89 -139 -12 -12 -21 -26 -21 -32 0 -14 33 -32 58
-32 31 0 43 -24 54 -105 l11 -75 -39 -48 c-54 -65 -114 -157 -114 -176 0 -24
53 -46 109 -46 55 0 129 -24 149 -48 6 -9 12 -33 12 -53 0 -49 15 -57 49 -25
l27 26 20 -27 c42 -57 46 -70 30 -108 -8 -19 -20 -35 -25 -35 -13 0 -15 -27
-3 -34 25 -15 122 47 122 78 0 7 -15 33 -33 57 -19 24 -37 56 -40 70 -4 14
-18 41 -31 60 -53 73 -56 82 -59 218 -3 122 -5 131 -30 165 l-27 35 48 37 c64
51 101 95 102 119 0 22 -17 40 -80 81 -31 21 -40 33 -40 55 0 18 -9 35 -27 49
l-27 21 23 6 c30 8 23 34 -15 54 -18 8 -39 23 -49 32 -18 19 -30 20 -61 7z
m191 -297 c11 -15 9 -23 -13 -55 -33 -45 -52 -49 -52 -9 0 69 36 104 65 64z
m-115 -459 c12 -22 17 -41 12 -46 -11 -11 -82 21 -82 38 0 9 32 38 47 43 0 1
11 -15 23 -35z"/>
<path d="M1358 1748 c-53 -44 -63 -114 -22 -155 23 -23 24 -28 14 -54 -7 -16
-23 -41 -36 -56 -28 -32 -31 -65 -8 -84 11 -9 14 -23 11 -45 -4 -26 -1 -36 17
-48 31 -20 38 -80 20 -173 -18 -95 -17 -191 1 -223 8 -14 14 -43 15 -65 0 -22
5 -57 11 -78 14 -52 4 -74 -42 -98 -22 -11 -39 -25 -36 -32 4 -13 87 -22 123
-13 21 6 21 9 16 116 -4 101 -3 110 14 116 10 4 35 19 54 33 67 50 129 81 160
81 10 0 33 -14 50 -31 29 -29 33 -31 47 -16 15 14 14 21 -12 71 -30 60 -42 65
-90 40 -52 -27 -134 -56 -144 -49 -14 8 -2 133 15 167 19 36 18 38 -17 91 -17
26 -29 54 -26 62 4 8 23 23 45 34 74 38 74 47 -2 149 -30 41 -36 55 -27 66 7
9 11 40 9 78 -3 54 -6 63 -23 67 -11 2 -35 16 -53 32 -35 31 -59 36 -84 17z
m102 -149 c0 -20 -15 -26 -24 -10 -8 13 4 42 15 35 5 -3 9 -14 9 -25z"/>
<path d="M2347 1727 c-11 -7 -21 -31 -24 -55 -5 -35 -1 -49 16 -72 22 -30 28
-65 12 -74 -5 -3 -21 -26 -36 -51 -24 -41 -25 -49 -14 -80 10 -27 10 -37 0
-49 -15 -18 -6 -36 18 -36 28 0 38 -19 44 -91 6 -63 2 -102 -23 -247 -14 -84
-8 -102 35 -102 30 0 35 -4 41 -27 3 -16 12 -47 20 -70 23 -63 16 -84 -34
-108 -23 -11 -41 -24 -39 -30 5 -15 45 -21 96 -15 l46 5 -1 45 c-1 25 -6 74
-12 110 -24 138 -26 127 25 150 67 30 113 27 148 -10 16 -16 35 -30 42 -30 23
0 14 52 -18 102 -30 46 -51 59 -64 38 -9 -15 -69 -38 -107 -42 -28 -3 -33 0
-36 20 -2 13 3 31 10 40 25 30 48 92 48 127 0 23 -10 49 -30 76 -16 23 -28 44
-26 48 3 4 24 17 49 29 66 33 82 55 68 90 -7 16 -30 48 -52 71 -38 42 -39 44
-39 117 0 72 -1 75 -27 86 -16 7 -35 17 -43 24 -25 20 -74 26 -93 11z m185
-312 c0 -5 -5 -11 -11 -13 -6 -2 -11 4 -11 13 0 9 5 15 11 13 6 -2 11 -8 11
-13z"/>
<path d="M3342 1717 c-32 -34 -34 -109 -4 -138 27 -25 23 -47 -19 -100 -34
-43 -36 -67 -9 -97 24 -26 25 -32 4 -32 -8 0 -24 -5 -35 -11 -30 -15 -5 -41
35 -37 31 3 31 3 45 -69 14 -70 14 -73 -11 -135 -68 -169 -64 -246 14 -219 40
14 53 3 103 -92 45 -88 45 -101 -5 -123 -44 -20 -47 -34 -9 -45 27 -7 115 3
126 15 4 3 -4 30 -16 59 -13 28 -29 72 -36 97 -20 70 -34 100 -45 100 -21 0
-9 31 16 40 54 21 97 2 130 -55 10 -19 11 -19 23 3 15 29 5 81 -23 116 -22 28
-22 28 -60 12 -62 -26 -77 -22 -69 17 3 17 16 58 29 90 25 63 22 86 -16 135
-28 35 -25 50 13 65 50 22 97 66 97 92 0 16 -19 43 -56 79 -56 54 -56 55 -59
121 -2 37 -5 68 -7 70 -1 2 -20 17 -42 34 -46 37 -84 40 -114 8z m195 -288
c14 -14 -4 -59 -23 -59 -20 0 -25 16 -14 44 10 28 20 32 37 15z"/>
<path d="M5404 805 c6 -30 4 -35 -12 -35 -11 0 -27 -11 -36 -25 -16 -25 -16
-25 17 -25 42 0 112 64 87 80 -8 5 -21 10 -27 10 -7 0 -13 7 -13 15 0 8 -5 15
-11 15 -7 0 -9 -12 -5 -35z"/>
<path d="M0 295 l0 -295 4500 0 4500 0 0 295 0 295 -4500 0 -4500 0 0 -295z
m510 85 c4 -19 13 -26 35 -28 17 -2 36 -11 43 -20 11 -15 14 -15 40 0 15 9 33
14 39 10 7 -4 13 -37 15 -72 3 -58 5 -65 24 -68 20 -3 22 2 26 67 4 75 9 87
33 78 12 -5 15 -23 15 -85 0 -47 -5 -83 -12 -90 -7 -7 -33 -12 -59 -12 -37 0
-51 5 -62 21 -14 19 -16 19 -24 4 -6 -10 -19 -16 -34 -13 -22 3 -24 8 -27 60
-5 104 -49 98 -54 -7 -3 -65 -22 -81 -44 -36 -11 22 -12 22 -18 3 -10 -32
-102 -46 -125 -19 -15 19 -4 27 41 27 27 0 38 4 38 15 0 8 -8 15 -18 15 -31 0
-62 29 -62 59 0 40 30 63 77 59 31 -2 39 -7 41 -25 3 -20 -1 -23 -27 -23 -39
0 -40 -18 -2 -33 16 -6 34 -20 39 -31 7 -17 10 -10 16 36 4 32 5 67 1 78 -9
29 4 62 23 58 9 -2 19 -14 22 -28z m350 -1 c9 -39 45 -37 59 3 12 32 13 32 27
14 7 -11 14 -26 14 -33 0 -7 5 -13 12 -13 6 0 20 -7 30 -17 17 -15 19 -15 36
0 53 48 148 -15 127 -83 -5 -16 -15 -20 -51 -20 -34 0 -44 -4 -44 -16 0 -12 7
-15 27 -11 33 6 53 -1 53 -18 0 -28 -83 -35 -111 -9 -16 14 -20 14 -44 -2 -37
-24 -70 -7 -79 40 -4 20 -5 40 -2 45 9 15 -20 45 -38 38 -22 -9 -22 -75 1 -92
9 -7 14 -19 10 -29 -16 -42 -77 4 -77 59 0 19 -5 46 -12 60 -10 23 -9 33 12
71 25 48 41 52 50 13z m630 2 c0 -10 10 -25 23 -34 l22 -15 -22 -24 c-29 -31
-29 -75 -1 -105 26 -28 13 -49 -25 -39 -25 6 -45 46 -45 91 0 11 -4 34 -9 50
-9 25 -6 36 14 68 24 38 43 41 43 8z m430 -30 l5 -53 28 26 c15 14 32 26 37
26 20 0 21 -24 1 -51 -26 -35 -26 -50 -1 -82 41 -52 13 -73 -36 -26 -30 29
-34 31 -34 12 0 -29 -28 -52 -41 -32 -10 16 -12 222 -2 233 4 4 14 5 23 4 10
-2 16 -19 20 -57z m5897 12 c5 -14 -40 -28 -62 -19 -22 8 -18 24 8 29 33 7 50
3 54 -10z m-6537 -28 c12 -14 15 -14 30 0 9 8 33 15 54 15 35 0 37 -2 34 -27
-2 -23 -7 -27 -25 -25 -16 2 -23 -2 -23 -12 0 -9 7 -16 14 -16 8 0 27 -11 41
-24 26 -24 26 -25 9 -50 -19 -29 -45 -39 -95 -34 -22 2 -35 9 -37 20 -3 13 6
17 40 20 43 3 55 19 21 28 -26 7 -63 33 -63 45 0 5 -4 17 -10 25 -7 12 -12 12
-29 -4 -16 -15 -21 -31 -21 -72 0 -53 -15 -78 -31 -53 -5 8 -9 39 -9 70 0 42
5 63 21 83 23 29 60 34 79 11z m357 0 c5 -16 -56 -85 -75 -85 -12 0 -22 24
-22 50 0 37 84 68 97 35z m201 -6 c30 -27 19 -41 -31 -37 l-42 3 0 -45 c0 -48
7 -52 63 -35 19 6 22 4 22 -18 0 -17 -7 -26 -22 -31 -44 -11 -77 -6 -98 17
-19 20 -22 20 -31 5 -12 -22 -66 -33 -85 -18 -16 14 -2 40 22 40 8 0 14 9 14
20 0 15 9 22 30 27 20 3 30 12 30 23 0 9 9 29 21 44 26 33 75 35 107 5z m224
-1 c-9 -9 -15 -9 -24 0 -9 9 -7 12 12 12 19 0 21 -3 12 -12z"/>
<path d="M976 297 c-25 -18 -18 -75 12 -95 22 -14 22 -14 22 41 0 61 -8 73
-34 54z"/>
<path d="M1077 293 c-13 -12 -7 -23 13 -23 13 0 18 5 14 15 -7 16 -17 19 -27
8z"/>
</g>
</svg>
