<?xml version="1.0" standalone="no"?>
<!DOCTYPE svg PUBLIC "-//W3C//DTD SVG 20010904//EN"
 "http://www.w3.org/TR/2001/REC-SVG-20010904/DTD/svg10.dtd">
<svg version="1.0" xmlns="http://www.w3.org/2000/svg"
 width="900.000000pt" height="633.000000pt" viewBox="0 0 900.000000 633.000000"
 preserveAspectRatio="xMidYMid meet">
<metadata>
Created by potrace 1.10, written by Peter Selinger 2001-2011
</metadata>
<g transform="translate(0.000000,633.000000) scale(0.100000,-0.100000)"
fill="#000000" stroke="none">
<path d="M803 6228 c-47 -52 -54 -98 -28 -186 18 -58 13 -75 -35 -127 -16 -16
-36 -56 -45 -88 -14 -50 -15 -68 -5 -130 7 -40 20 -97 30 -127 52 -161 24
-342 -65 -427 -53 -50 -57 -71 -15 -79 36 -8 37 -17 10 -122 -27 -103 -33
-115 -88 -181 -55 -64 -72 -90 -122 -184 -20 -38 -57 -91 -83 -118 -28 -29
-47 -59 -47 -72 1 -13 29 -52 69 -95 54 -57 76 -74 105 -79 29 -4 36 -2 36 10
0 9 -8 21 -18 26 -26 14 -56 85 -48 114 3 14 42 73 86 131 105 139 116 151
172 191 39 29 55 51 100 142 29 59 58 109 65 111 13 4 17 -1 98 -108 68 -90
75 -105 85 -192 4 -37 18 -93 30 -125 62 -160 70 -186 70 -235 0 -26 6 -50 13
-57 16 -13 265 -3 273 11 11 17 -18 37 -67 47 -93 20 -107 37 -134 166 -9 43
-18 82 -21 86 -3 5 -8 66 -13 136 -7 114 -12 139 -45 223 -20 52 -46 120 -58
150 -12 30 -32 79 -45 108 -17 37 -23 67 -21 100 l3 47 65 -3 c51 -3 72 -9 98
-28 36 -28 65 -28 70 0 5 24 -30 59 -97 99 -31 17 -71 41 -91 53 -56 32 -70
72 -70 195 0 156 -13 215 -61 266 -45 49 -49 80 -15 112 33 31 47 93 37 163
-11 80 -30 98 -101 98 -46 0 -60 -4 -77 -22z"/>
<path d="M2206 6224 c-14 -15 -26 -29 -26 -33 -1 -3 -5 -25 -9 -49 -6 -29 -4
-54 5 -80 22 -61 17 -93 -18 -137 -60 -73 -80 -177 -55 -285 40 -173 42 -205
17 -284 -16 -52 -21 -85 -16 -113 3 -21 9 -58 14 -83 4 -25 5 -116 2 -203 l-5
-157 -41 -28 c-23 -15 -83 -67 -135 -116 -63 -61 -110 -96 -148 -113 -31 -13
-63 -28 -71 -32 -21 -11 -24 -48 -8 -74 8 -12 23 -51 33 -87 19 -67 39 -100
61 -100 17 0 21 27 13 75 -12 63 7 115 50 139 11 6 72 45 136 86 64 41 137 89
164 105 83 52 123 91 130 126 3 18 12 34 18 36 21 7 36 -41 39 -122 1 -44 9
-109 18 -145 10 -41 16 -110 16 -186 0 -91 3 -124 14 -133 9 -8 56 -11 142 -9
112 3 129 5 132 20 2 12 -5 19 -25 23 -54 12 -111 36 -127 54 -22 24 -33 261
-18 381 7 53 7 109 2 150 -18 137 -41 256 -55 293 -19 48 -19 86 0 93 22 9 43
-13 55 -57 13 -47 41 -66 64 -43 22 22 20 41 -14 104 -16 30 -49 96 -73 145
l-44 90 -12 170 c-12 180 -17 196 -72 243 -33 27 -39 71 -13 93 48 39 62 175
24 237 -19 30 -23 32 -78 32 -51 0 -63 -4 -86 -26z"/>
<path d="M3612 6240 c-47 -20 -66 -119 -37 -200 18 -52 14 -67 -30 -120 -63
-75 -75 -188 -36 -334 24 -91 27 -180 6 -216 -17 -31 -20 -167 -4 -207 7 -15
17 -62 24 -103 7 -41 18 -100 25 -130 12 -53 12 -57 -12 -92 -14 -21 -38 -74
-52 -119 -30 -93 -82 -177 -137 -221 -46 -37 -48 -56 -14 -88 14 -13 46 -52
71 -86 50 -68 70 -82 90 -62 11 11 11 18 -1 38 -35 60 -46 95 -41 122 5 26
112 178 135 193 28 17 34 -68 19 -249 -6 -84 -6 -122 2 -130 6 -6 43 -14 83
-17 39 -4 96 -11 126 -15 49 -6 53 -5 49 12 -2 11 -24 29 -53 42 -78 37 -85
47 -85 115 0 77 25 218 58 327 23 79 25 98 23 264 -1 146 1 186 15 222 16 43
16 45 -10 103 -30 67 -32 110 -12 252 10 70 11 121 5 185 -9 91 -18 112 -69
164 -36 37 -38 63 -5 102 36 43 48 97 36 166 -14 71 -36 92 -100 91 -25 0 -56
-4 -69 -9z"/>
<path d="M4994 6232 c-11 -9 -29 -36 -39 -60 -18 -41 -18 -45 -2 -90 25 -68
22 -118 -7 -145 -13 -12 -34 -42 -46 -67 -32 -62 -33 -196 -2 -294 26 -79 28
-162 7 -213 -17 -41 -20 -151 -4 -206 8 -29 6 -71 -5 -167 -9 -71 -16 -155
-16 -187 0 -32 -6 -82 -14 -111 -10 -38 -12 -92 -8 -188 4 -113 2 -145 -14
-196 -17 -56 -17 -61 -1 -73 17 -12 241 -30 258 -20 22 14 5 34 -41 51 -76 27
-94 48 -86 98 4 23 13 95 21 161 8 71 23 147 38 186 14 36 28 90 32 120 9 64
20 89 41 89 28 0 39 -46 25 -111 -6 -33 -16 -103 -20 -157 -12 -129 -28 -191
-59 -225 -37 -39 -23 -72 43 -99 28 -12 67 -34 87 -50 38 -29 98 -39 98 -16 0
6 -22 33 -50 58 -44 41 -50 51 -50 86 0 22 13 81 29 130 16 49 39 123 51 164
12 41 37 110 55 152 38 87 38 93 -15 197 -29 58 -32 71 -26 119 6 49 3 60 -36
140 -42 85 -43 89 -40 172 2 47 5 137 5 200 2 108 0 118 -25 160 -14 25 -36
53 -47 62 -28 24 -26 45 9 97 16 24 32 58 36 76 9 50 -13 142 -39 160 -30 21
-116 19 -143 -3z"/>
<path d="M6367 6222 c-36 -37 -44 -100 -23 -173 19 -63 15 -81 -25 -124 -15
-17 -35 -50 -44 -74 -17 -49 -20 -186 -5 -226 33 -86 30 -194 -6 -285 -14 -33
-19 -74 -20 -160 -2 -218 -20 -388 -48 -459 -20 -49 -26 -83 -26 -137 0 -46
-9 -106 -27 -170 -14 -55 -27 -119 -27 -144 l-1 -45 120 -8 c66 -4 130 -5 143
-2 31 8 28 33 -5 40 -71 14 -109 33 -126 63 l-18 31 50 149 c27 81 67 179 89
218 25 45 41 87 45 121 6 55 31 113 47 113 6 0 18 -8 29 -19 10 -10 44 -37 75
-60 l56 -42 0 -64 c0 -35 6 -79 14 -97 49 -114 106 -299 106 -344 0 -20 6 -37
17 -42 17 -10 91 -4 108 8 6 5 40 11 77 15 119 13 115 63 -4 63 -110 0 -125
39 -157 413 -8 101 -11 110 -51 173 -57 90 -123 242 -124 285 -1 31 2 36 19
33 11 -2 31 -17 46 -34 33 -39 72 -37 77 5 3 22 -9 42 -54 95 -104 122 -109
133 -104 226 10 202 2 249 -55 312 -25 27 -45 55 -45 62 0 8 14 33 31 57 25
35 32 56 34 101 5 114 -23 154 -110 154 -43 0 -56 -5 -78 -28z"/>
<path d="M7761 6225 c-40 -34 -50 -97 -27 -170 22 -71 21 -80 -19 -124 -19
-21 -42 -55 -50 -75 -20 -48 -20 -155 0 -226 46 -164 47 -175 42 -257 -6 -101
-48 -201 -104 -249 -38 -32 -41 -64 -5 -64 36 0 39 -17 16 -108 -29 -117 -30
-118 -89 -187 -28 -33 -83 -115 -123 -182 -42 -70 -85 -131 -103 -144 -27 -19
-30 -26 -25 -53 3 -17 19 -42 34 -56 16 -14 43 -44 61 -67 20 -27 43 -44 62
-48 49 -11 57 8 21 49 -45 52 -50 88 -16 139 80 122 162 217 256 298 32 28 52
56 63 87 25 70 68 137 91 140 15 2 29 -9 47 -37 15 -23 45 -64 66 -92 42 -55
61 -106 61 -162 0 -19 23 -96 50 -171 35 -94 50 -151 50 -185 0 -29 6 -53 14
-60 16 -13 263 -4 272 11 10 16 -17 37 -55 43 -52 9 -101 35 -116 64 -21 43
-67 292 -66 366 0 43 -7 89 -18 120 -56 154 -93 251 -121 311 -31 68 -40 146
-19 159 21 14 118 -6 155 -31 46 -32 69 -28 69 11 0 32 -4 35 -161 130 -85 51
-94 71 -94 214 0 151 -13 206 -61 258 -22 24 -39 49 -39 56 0 7 14 35 31 60
37 56 46 109 30 174 -18 69 -34 83 -97 83 -42 0 -59 -5 -83 -25z"/>
<path d="M765 3802 c-46 -28 -56 -46 -62 -108 -6 -53 -9 -59 -49 -87 -24 -17
-54 -51 -69 -79 -15 -28 -47 -72 -71 -99 -24 -27 -44 -53 -44 -58 0 -5 10 -30
21 -56 l21 -48 -32 -63 c-26 -51 -31 -70 -26 -99 8 -40 -29 -210 -51 -236 -10
-12 -34 -15 -130 -13 -65 1 -132 5 -149 9 -28 6 -33 3 -52 -27 -12 -18 -32
-47 -46 -63 -14 -17 -26 -41 -26 -53 0 -23 1 -23 49 12 32 24 60 36 81 36 43
0 175 -37 262 -74 78 -33 95 -23 173 112 26 46 54 86 62 89 15 6 23 3 118 -50
l60 -32 0 -80 c1 -126 17 -295 29 -303 21 -13 121 -42 149 -42 15 0 27 5 27
13 0 7 -12 20 -27 29 -16 9 -40 29 -55 45 l-28 29 11 114 c6 63 17 137 24 163
9 30 11 56 6 70 -5 12 -59 71 -120 131 -61 59 -113 116 -116 125 -3 9 1 25 8
35 16 22 30 16 113 -45 68 -50 104 -56 104 -16 0 15 -11 28 -35 41 -19 10 -57
46 -85 79 -57 67 -58 80 -23 174 15 41 14 112 -2 161 -6 18 0 29 28 55 65 59
87 152 47 195 -12 12 -25 22 -30 22 -4 0 -14 2 -22 5 -7 3 -26 -3 -43 -13z"/>
<path d="M7127 3789 c-34 -20 -49 -67 -42 -129 l7 -58 -38 -28 c-70 -54 -135
-118 -166 -163 -41 -61 -40 -104 7 -206 43 -94 42 -105 -8 -250 l-36 -100
-122 -3 c-75 -2 -126 1 -133 8 -23 23 -55 10 -84 -32 -16 -24 -39 -52 -51 -62
-11 -11 -21 -25 -21 -32 0 -23 21 -26 43 -6 31 28 62 42 92 42 34 0 242 -57
281 -77 54 -28 76 -14 146 97 35 55 69 102 76 105 7 3 56 -18 108 -46 92 -50
94 -52 109 -101 8 -27 35 -78 60 -113 31 -44 47 -78 51 -109 6 -40 10 -46 43
-59 55 -22 140 -41 147 -34 11 11 -5 37 -28 46 -53 20 -76 64 -125 236 -51
179 -57 188 -231 334 -84 71 -64 135 23 72 51 -36 91 -41 100 -11 8 27 -8 46
-50 60 -19 6 -48 27 -65 47 -26 29 -31 42 -26 67 18 99 18 165 1 215 -16 49
-16 53 2 78 49 69 53 79 53 135 0 47 -4 59 -22 72 -25 18 -74 20 -101 5z"/>
<path d="M1843 3743 c-36 -7 -73 -59 -73 -103 0 -52 -17 -86 -50 -100 -59 -25
-102 -119 -125 -273 -8 -60 -22 -121 -30 -137 -19 -36 -19 -98 0 -175 21 -87
20 -115 -5 -115 -12 0 -31 6 -43 14 -12 8 -46 19 -76 26 -40 10 -63 22 -86 47
l-32 35 -71 -31 c-39 -17 -75 -31 -80 -31 -12 0 -23 -26 -15 -34 4 -3 35 -6
70 -6 76 0 69 3 250 -116 184 -122 216 -123 244 -9 15 62 23 72 45 54 33 -27
54 -91 54 -164 0 -38 7 -95 15 -125 8 -30 18 -85 21 -122 l7 -67 49 -10 c27
-6 60 -18 73 -27 24 -16 75 -13 75 5 0 4 -23 23 -51 41 -76 49 -81 69 -71 253
9 163 6 191 -28 277 -33 83 -34 88 -20 131 13 37 12 41 -22 91 -64 97 -63 89
-31 186 28 87 35 167 19 224 -7 22 -3 31 24 55 39 33 69 95 70 140 0 33 -21
63 -45 63 -7 0 -19 2 -27 4 -7 2 -23 1 -35 -1z"/>
<path d="M4895 3741 c-41 -17 -59 -49 -63 -114 -4 -59 -7 -65 -53 -110 -27
-26 -49 -56 -49 -65 0 -10 -16 -40 -35 -67 -65 -94 -71 -110 -56 -158 15 -46
15 -62 8 -212 -6 -133 -35 -211 -115 -320 -35 -46 -76 -111 -93 -144 -17 -33
-39 -63 -50 -66 -31 -10 -41 -40 -29 -83 5 -20 10 -51 10 -68 0 -36 31 -81 48
-70 7 4 12 32 12 65 0 54 3 63 51 127 28 38 92 108 142 156 50 48 98 101 107
117 8 16 32 54 53 85 31 45 45 56 73 61 19 3 50 7 69 10 46 8 53 -11 27 -73
-11 -26 -23 -64 -27 -85 -5 -25 -17 -45 -36 -59 -37 -27 -36 -48 0 -140 31
-75 37 -83 58 -70 10 6 10 22 3 66 -11 70 -15 60 114 256 53 80 96 152 96 161
0 42 -86 91 -182 104 -45 6 -78 25 -78 46 0 5 10 9 22 9 29 0 108 -30 108 -41
0 -15 37 -10 50 6 26 32 5 56 -77 85 -46 17 -84 58 -78 84 2 11 12 52 21 91
16 66 16 72 -2 123 -11 35 -15 58 -8 66 53 72 67 101 72 145 4 43 1 50 -23 69
-29 23 -56 27 -90 13z"/>
<path d="M5999 3718 c-28 -30 -30 -38 -26 -85 8 -75 0 -91 -52 -118 -92 -47
-191 -164 -191 -225 0 -13 18 -65 41 -116 45 -103 45 -106 11 -234 -34 -126
-32 -122 -112 -148 -39 -13 -103 -43 -140 -67 -38 -25 -82 -47 -97 -51 -15 -3
-36 -8 -45 -10 -17 -5 -58 -110 -58 -151 0 -34 25 -28 50 12 16 25 41 44 93
69 78 36 231 86 267 86 60 0 140 66 189 156 23 43 30 49 56 47 41 -2 173 -37
184 -48 6 -6 11 -61 12 -123 1 -91 -2 -116 -15 -131 -9 -10 -16 -23 -16 -29 0
-6 30 -34 67 -61 94 -71 132 -68 76 6 -17 22 -27 47 -26 68 1 43 39 187 64
246 11 26 19 62 17 80 -3 30 -12 38 -98 91 -52 32 -111 64 -131 70 -41 12 -62
44 -47 71 13 23 39 21 100 -8 62 -30 84 -31 97 -6 13 23 -6 41 -71 65 -26 9
-58 26 -72 37 -24 19 -26 26 -26 109 0 55 -6 107 -16 136 -15 45 -15 48 5 73
39 49 51 80 52 137 2 67 -13 84 -73 84 -31 0 -45 -7 -69 -32z m-144 -428 c10
-16 -5 -50 -21 -50 -9 0 -14 11 -14 30 0 30 21 42 35 20z"/>
<path d="M8231 3724 c-29 -24 -31 -30 -31 -94 0 -66 -1 -70 -40 -111 -27 -29
-46 -62 -56 -99 -8 -30 -23 -79 -32 -108 -14 -47 -14 -58 -2 -85 9 -20 15 -72
15 -137 1 -58 5 -142 10 -187 10 -106 0 -124 -53 -93 -19 11 -57 26 -84 31
-34 8 -63 23 -89 46 l-39 36 -59 -27 c-32 -14 -63 -26 -69 -26 -17 0 -43 -31
-36 -42 4 -6 27 -7 58 -4 31 4 64 2 81 -4 16 -6 93 -53 171 -105 151 -100 180
-113 213 -96 23 13 51 60 51 88 0 10 9 38 20 62 l20 44 24 -22 c28 -27 42 -79
56 -206 5 -49 14 -106 20 -125 5 -19 10 -56 10 -82 0 -51 18 -78 51 -78 11 0
40 -9 65 -20 46 -21 84 -19 84 4 0 8 -14 19 -30 26 -17 7 -44 28 -61 48 l-32
36 7 177 8 178 -37 99 c-35 93 -36 101 -22 128 19 38 11 57 -51 122 -60 63
-67 79 -53 129 29 103 24 206 -11 255 -13 18 -4 43 33 89 14 17 22 46 26 86 5
55 3 62 -18 77 -35 24 -82 20 -118 -10z"/>
<path d="M2845 3711 c-36 -15 -52 -45 -60 -104 -7 -60 -9 -64 -64 -100 -20
-13 -45 -43 -60 -72 -24 -48 -61 -203 -61 -256 0 -15 -10 -48 -21 -74 -29 -65
-21 -123 26 -191 38 -55 42 -69 21 -77 -22 -9 -58 4 -89 30 -34 28 -44 28 -78
5 -15 -9 -45 -30 -68 -45 -38 -25 -59 -52 -50 -62 2 -2 33 3 68 11 36 9 75 13
87 10 28 -8 189 -103 205 -123 16 -18 -14 -190 -42 -246 -10 -21 -19 -43 -19
-50 0 -19 127 -117 150 -117 28 0 25 15 -12 61 -53 65 -38 129 69 306 46 76
53 115 29 161 -27 53 -69 191 -63 207 5 12 11 14 26 5 23 -12 51 -3 51 16 0 8
-18 37 -40 65 -22 28 -40 58 -40 66 0 9 16 56 36 106 37 91 41 142 19 214 -6
18 0 29 30 55 20 18 43 48 51 67 18 43 18 105 0 120 -19 16 -76 23 -101 12z"/>
<path d="M3833 3710 c-32 -13 -53 -61 -53 -120 0 -48 -3 -54 -44 -92 -28 -25
-50 -57 -60 -85 -9 -25 -34 -65 -56 -89 -22 -24 -40 -51 -40 -59 0 -9 10 -37
21 -63 l21 -46 -22 -50 c-33 -73 -36 -125 -11 -174 12 -23 21 -52 21 -66 0
-25 -4 -30 -48 -64 -23 -17 -23 -19 -13 -102 l11 -84 -48 -79 c-26 -44 -64
-97 -84 -119 -43 -45 -48 -73 -15 -84 12 -3 45 -22 73 -40 31 -21 58 -32 68
-28 22 8 21 11 -19 55 -19 22 -35 44 -35 49 0 13 130 140 192 187 41 32 49 44
58 89 6 29 16 57 23 62 7 5 46 17 87 26 213 47 223 90 53 223 -45 35 -83 71
-83 79 0 15 45 20 54 6 13 -22 84 -62 99 -56 29 11 19 36 -38 89 -77 73 -87
96 -68 149 17 46 22 171 9 229 -8 35 -6 41 23 71 57 59 66 167 14 187 -30 11
-61 11 -90 -1z"/>
<path d="M8805 1910 c-10 -11 -27 -48 -39 -82 l-22 -63 -54 -6 c-30 -3 -76
-15 -102 -27 -26 -11 -82 -32 -125 -46 -76 -24 -210 -80 -247 -102 -25 -15
-14 -44 16 -44 13 0 33 7 46 15 12 9 59 25 104 36 46 11 98 23 116 28 24 7 36
6 47 -5 17 -18 13 -30 -51 -153 -39 -75 -46 -94 -40 -124 6 -34 45 -79 101
-121 31 -23 8 -47 -65 -72 -34 -11 -66 -28 -71 -36 -11 -19 59 -175 76 -170 6
1 10 27 10 57 0 30 5 58 10 63 12 12 116 42 142 42 36 0 50 -31 57 -120 3 -47
12 -108 20 -136 14 -52 11 -99 -5 -110 -24 -14 -4 -44 60 -92 39 -29 75 -52
80 -52 18 0 12 46 -9 65 -10 9 -27 37 -36 61 -17 45 -14 119 16 398 12 107 4
126 -89 201 -33 26 -63 56 -66 66 -7 21 7 52 33 71 43 32 92 133 92 189 0 51
13 75 43 83 14 3 41 24 61 46 30 33 36 48 36 83 0 57 -22 77 -82 77 -32 0 -50
-6 -63 -20z"/>
<path d="M5575 1881 c-33 -14 -57 -48 -70 -98 -11 -44 -17 -50 -70 -77 -77
-39 -113 -97 -160 -254 -19 -67 -35 -129 -35 -138 0 -29 39 -81 70 -94 56 -23
56 -43 0 -90 -75 -63 -68 -82 48 -131 40 -16 56 -19 64 -11 9 9 5 19 -15 40
-52 54 -28 86 110 149 79 36 95 30 110 -42 7 -33 13 -99 13 -147 1 -101 2
-102 100 -92 98 10 119 34 45 53 -72 18 -73 26 -39 235 19 114 14 139 -38 168
-47 26 -84 70 -73 88 5 8 23 9 54 5 38 -5 50 -3 61 10 12 15 12 19 -5 31 -10
8 -34 14 -52 14 -40 0 -88 23 -102 48 -5 9 -12 38 -16 64 -7 46 -7 47 35 74
44 29 80 87 80 127 0 51 -65 89 -115 68z m-24 -472 c9 -17 8 -23 -2 -30 -19
-12 -22 -11 -44 5 -23 16 -14 46 14 46 11 0 25 -10 32 -21z"/>
<path d="M7743 1876 c-19 -9 -40 -30 -52 -53 -25 -51 -37 -59 -91 -68 -86 -14
-113 -32 -201 -132 -124 -142 -200 -245 -197 -268 6 -39 35 -27 85 37 48 61
96 98 110 85 3 -4 -11 -42 -33 -84 -59 -118 -50 -178 34 -215 26 -12 50 -26
54 -31 8 -13 -23 -76 -51 -101 -12 -11 -21 -24 -21 -31 0 -15 104 -115 119
-115 15 0 13 30 -4 60 -8 14 -14 33 -15 43 0 21 74 104 101 112 29 9 59 -12
59 -42 0 -15 5 -64 12 -110 11 -74 10 -87 -5 -112 -9 -16 -17 -37 -17 -48 0
-19 101 -133 118 -133 20 0 20 29 0 65 -11 22 -20 57 -20 83 0 46 24 164 48
241 20 64 17 95 -12 130 -22 26 -25 37 -19 71 6 38 4 43 -29 74 -43 39 -44 57
-10 133 19 41 28 79 30 126 3 68 15 97 40 97 16 0 55 36 78 72 46 70 -31 149
-111 114z"/>
<path d="M6597 1854 c-19 -10 -37 -35 -53 -70 -21 -48 -30 -57 -78 -78 -81
-36 -113 -88 -165 -270 -39 -133 -39 -168 -5 -203 22 -22 32 -25 70 -20 71 8
70 -20 -1 -73 -24 -18 -46 -39 -49 -46 -8 -22 5 -49 32 -66 15 -9 41 -26 57
-37 43 -29 66 -13 36 24 -31 40 -26 60 24 99 41 31 48 33 76 23 34 -13 49 -1
49 41 0 17 5 23 18 20 15 -3 17 -20 18 -176 0 -179 3 -191 43 -192 7 0 31 -10
52 -22 30 -16 42 -19 51 -10 8 8 2 21 -25 52 -30 32 -37 48 -37 81 0 43 38
181 72 261 19 45 19 49 4 73 -9 14 -32 31 -50 39 -24 10 -38 25 -47 50 -11 29
-23 41 -66 61 -79 36 -65 62 24 46 50 -10 73 -6 73 13 0 20 -23 36 -51 36 -15
0 -39 4 -54 10 -25 9 -26 13 -23 77 3 64 4 67 32 74 54 15 123 100 111 138
-18 56 -80 77 -138 45z"/>
<path d="M3563 1798 c-20 -12 -41 -39 -55 -69 -20 -44 -31 -54 -83 -79 -84
-41 -101 -70 -121 -210 -12 -82 -25 -131 -45 -172 -16 -32 -29 -67 -29 -78 0
-43 29 -90 80 -126 60 -43 61 -63 4 -80 -23 -7 -52 -18 -65 -25 -13 -7 -53
-15 -89 -18 l-64 -6 -33 -65 c-17 -36 -32 -73 -32 -82 -1 -27 34 -22 53 7 9
14 26 31 39 40 22 14 274 55 341 55 42 0 96 42 96 73 0 12 -14 49 -30 81 -17
32 -30 66 -30 76 0 10 32 38 81 69 75 50 82 52 99 36 20 -18 57 -114 62 -160
4 -42 36 -42 118 -2 77 38 87 64 23 59 -23 -2 -51 2 -62 7 -27 15 -41 70 -41
158 0 69 1 73 25 79 14 4 45 1 69 -6 51 -14 86 -6 86 20 0 20 -19 30 -56 30
-14 0 -60 12 -103 26 -68 22 -87 34 -149 95 l-72 69 32 20 c45 27 91 98 83
130 -7 32 -50 70 -78 69 -12 0 -37 -10 -54 -21z m54 -384 c8 -21 -15 -42 -55
-50 -37 -7 -42 7 -16 44 18 26 62 30 71 6z"/>
<path d="M4558 1799 c-15 -11 -38 -43 -51 -72 -21 -47 -29 -54 -75 -71 -80
-28 -113 -87 -126 -226 -4 -40 -16 -97 -27 -125 -29 -76 -25 -125 11 -160 44
-42 39 -60 -22 -80 -35 -11 -66 -14 -99 -10 l-48 7 -11 -44 c-7 -23 -19 -60
-28 -81 -10 -25 -12 -41 -5 -48 13 -13 41 -1 48 20 13 42 47 58 150 70 302 35
306 36 331 65 31 36 30 52 -6 84 -16 15 -30 34 -30 42 0 20 77 72 99 68 19 -4
59 -110 60 -160 1 -48 22 -50 77 -8 21 16 44 30 50 30 6 0 19 9 29 20 29 32 6
47 -45 30 -56 -18 -68 -4 -70 80 -4 105 -4 103 33 97 17 -3 49 -10 70 -15 46
-12 79 -5 75 16 -3 16 -28 31 -83 50 -78 27 -150 62 -153 75 -2 8 7 17 20 20
13 4 32 13 43 21 19 14 19 16 3 32 -15 15 -22 16 -63 4 l-46 -13 -40 41 -40
42 56 55 c46 46 55 61 55 90 0 47 -29 75 -77 75 -22 0 -49 -9 -65 -21z m27
-400 c0 -19 -6 -25 -27 -27 -32 -4 -36 12 -11 40 21 24 38 18 38 -13z"/>
<path d="M2480 1767 c-28 -14 -70 -81 -70 -113 0 -19 -50 -74 -77 -85 -4 -2
-19 -17 -33 -32 -24 -27 -25 -36 -31 -200 -4 -95 -10 -187 -14 -206 -8 -34 2
-91 37 -214 25 -88 22 -107 -24 -131 -21 -11 -72 -48 -114 -83 -55 -46 -84
-63 -105 -63 -38 0 -48 -26 -50 -121 -2 -92 13 -107 41 -41 13 29 37 62 58 79
38 30 279 153 300 153 27 0 42 58 42 169 0 60 4 121 9 134 7 17 27 30 73 47
35 13 68 27 75 32 7 5 21 8 31 6 25 -4 116 -118 147 -185 29 -63 49 -67 105
-23 21 16 42 30 47 30 6 0 18 9 28 20 29 32 7 46 -49 30 -34 -9 -49 -10 -59
-1 -25 20 -65 105 -96 201 -17 51 -37 97 -43 102 -24 15 -73 8 -135 -18 -34
-15 -69 -24 -77 -21 -20 8 -20 49 -1 115 17 57 36 65 85 37 37 -21 70 -18 151
15 41 16 81 30 90 30 8 0 25 9 37 20 18 17 20 25 12 40 -11 21 -34 17 -82 -14
-30 -18 -130 -29 -160 -16 -13 5 -45 30 -73 55 l-50 45 22 18 c42 32 73 84 73
121 0 42 -7 54 -37 70 -28 14 -52 14 -83 -2z"/>
<path d="M1405 1681 c-34 -15 -56 -47 -64 -97 -9 -63 -17 -76 -68 -113 -55
-40 -63 -71 -63 -247 0 -101 -4 -152 -14 -176 -10 -22 -15 -68 -15 -124 1
-143 -24 -290 -59 -360 -16 -33 -40 -89 -51 -124 -12 -35 -31 -74 -42 -86 -24
-26 -23 -57 6 -136 16 -44 37 -64 55 -53 5 3 6 29 3 58 -5 48 -1 60 40 139 25
48 65 113 89 144 58 76 68 96 89 178 38 149 46 175 63 200 16 25 180 116 208
116 13 0 56 -72 110 -185 50 -104 53 -110 69 -113 20 -4 139 86 139 105 0 9
-6 13 -14 10 -8 -3 -30 -9 -49 -12 -30 -6 -38 -3 -50 17 -18 27 -55 171 -63
243 -10 79 -22 90 -102 87 -37 -1 -92 -7 -122 -12 -78 -14 -88 -2 -71 82 15
75 30 95 59 79 48 -26 92 -10 162 59 9 9 32 28 53 44 25 19 37 36 37 53 0 40
-28 39 -73 -4 -51 -48 -90 -73 -115 -73 -22 0 -112 68 -112 85 0 6 11 22 24
34 13 12 32 43 41 67 22 57 8 97 -37 113 -35 13 -36 13 -63 2z"/>
<path d="M408 1600 c-18 -13 -28 -36 -37 -76 -10 -52 -18 -64 -76 -121 -36
-35 -65 -68 -65 -74 0 -6 -9 -22 -20 -36 -28 -36 -25 -56 17 -126 22 -39 36
-73 35 -92 -1 -16 -2 -127 -1 -246 l0 -217 -30 -73 c-30 -74 -61 -179 -61
-209 0 -9 -11 -27 -25 -40 -34 -32 -32 -44 17 -77 24 -16 52 -43 63 -60 23
-37 65 -46 65 -14 0 11 -5 23 -10 26 -22 13 -52 87 -45 112 9 38 84 192 116
239 21 31 32 66 44 140 23 145 25 148 83 139 26 -3 55 -15 65 -24 18 -17 18
-22 4 -67 -9 -27 -21 -71 -27 -98 -6 -27 -22 -62 -35 -78 -14 -16 -25 -33 -25
-38 0 -14 102 -130 115 -130 22 0 24 13 9 49 -23 53 -19 93 11 142 71 112 114
176 129 188 9 7 16 24 16 38 0 32 -92 120 -183 175 -86 52 -101 74 -93 133 8
48 21 64 39 46 26 -26 82 -3 197 83 83 62 99 96 46 96 -14 0 -30 -10 -39 -23
-8 -12 -38 -33 -66 -47 -62 -29 -79 -23 -96 36 -6 22 -24 61 -39 87 l-28 46
32 44 c42 58 50 117 21 146 -27 27 -89 28 -123 1z"/>
</g>
</svg>
